<?xml version="1.0" ?>
<svg xmlns="http://www.w3.org/2000/svg" xmlns:ev="http://www.w3.org/2001/xml-events" xmlns:xlink="http://www.w3.org/1999/xlink" baseProfile="full" height="397.87503mm" id="svg5" version="1.1" viewBox="0 0 375.2666 397.87503" width="375.2666mm" xml:space="preserve">
	<defs/>
	<path d="M 101.247,397.689 C 101.247,397.406 127.458,357.349 132.809,349.454 C 135.406,345.622 137.437,342.487 137.323,342.487 C 136.913,342.487 130.419,347.53 126.738,350.707 C 117.129,359.001 104.634,372.101 93.72,385.324 C 92.587,386.696 91.606,387.874 91.54,387.941 C 91.299,388.185 88.3,385.905 87.069,384.542 C 81.454,378.327 79.46,362.841 82.79,351.308 C 85.036,343.528 87.756,339.45 97.025,329.966 C 105.401,321.395 106.23,320.107 106.474,315.272 C 106.636,312.064 106.036,309.702 104.073,305.821 C 101.015,299.775 96.473,294.595 87.842,287.309 C 78.629,279.533 76.425,276.878 74.954,271.784 C 74.485,270.158 74.391,268.833 74.529,265.787 C 74.75,260.884 75.716,257.193 78.989,248.733 C 81.991,240.977 82.551,238.898 82.546,235.544 C 82.534,228.366 79.634,224.169 70.379,217.94 C 58.842,210.175 56.229,205.039 54.863,187.441 C 54.043,176.884 53.19,173.211 50.216,167.445 C 48.749,164.6 46.386,161.146 43.969,158.313 L 42.958,157.128 L 41.89,158.35 C 37.882,162.936 25.047,176.555 25.047,176.222 C 25.047,176.1 26.633,171.629 28.571,166.285 C 30.509,160.942 32.196,155.937 32.32,155.162 C 32.783,152.265 31.428,152.097 25.498,154.318 C 23.663,155.006 22.097,155.504 22.019,155.426 C 21.941,155.346 22.977,153.914 24.321,152.238 C 26.71,149.261 28.792,146.089 28.529,145.826 C 28.457,145.756 25.699,145.279 22.401,144.772 C 16.339,143.839 2.126,141.162 0.974,140.736 C 0.62,140.605 2.224,140.225 4.672,139.861 C 13.124,138.603 22.899,136.32 25.512,134.993 C 26.759,134.36 26.841,134.226 26.616,133.182 C 26.095,130.761 24.887,128.958 17.824,120.061 C 14.898,116.374 10.614,110.897 8.304,107.89 C 5.994,104.882 3.18,101.283 2.052,99.892 C 0.923,98.5 0.0,97.266 0.0,97.15 C 0.0,97.033 4.564,100.008 10.142,103.76 C 19.125,109.803 27.959,114.973 28.455,114.477 C 28.551,114.377 26.844,111.55 24.662,108.186 C 17.83,97.651 4.264,75.991 4.408,75.847 C 4.559,75.696 6.351,76.935 18.874,85.851 C 30.222,93.93 39.111,100.132 39.625,100.33 C 39.911,100.439 40.357,98.954 41.024,95.673 C 42.513,88.349 44.776,81.67 48.997,72.141 L 51.096,67.405 L 51.485,60.572 C 51.699,56.813 51.968,53.118 52.083,52.359 L 52.292,50.98 L 53.858,54.642 C 54.72,56.656 55.508,58.388 55.611,58.49 C 55.713,58.592 55.982,58.43 56.209,58.128 C 56.435,57.827 57.328,56.954 58.192,56.188 L 59.762,54.797 L 59.032,56.031 C 56.746,59.895 56.513,60.442 56.82,61.235 C 56.989,61.671 57.197,62.029 57.283,62.029 C 57.369,62.029 58.023,60.957 58.739,59.647 C 61.801,54.042 65.582,49.952 82.49,33.965 C 87.405,29.318 92.087,25.075 92.895,24.536 C 95.126,23.049 96.682,22.765 101.098,23.041 L 105.008,23.285 L 105.655,21.592 C 106.553,19.24 108.931,17.004 113.264,14.437 C 136.729,0.537 164.657,-3.524 191.116,3.117 C 203.906,6.327 215.397,12.645 224.061,21.231 C 227.126,24.269 231.069,28.921 232.101,30.717 C 232.8,31.934 233.084,31.934 233.753,30.717 C 237.107,24.625 238.615,22.161 238.841,22.402 C 238.99,22.561 239.292,24.596 239.514,26.924 C 240.612,38.483 240.207,37.018 244.834,46.205 L 248.982,54.441 L 251.402,55.427 C 254.225,56.579 255.139,56.472 256.156,54.872 C 256.839,53.798 256.867,53.383 256.665,47.385 C 256.546,43.893 256.363,40.48 256.256,39.801 C 256.1,38.806 256.427,39.208 257.937,41.874 C 260.975,47.238 263.609,49.648 266.456,49.671 C 267.905,49.681 274.39,47.999 289.042,43.81 C 296.189,41.766 302.092,40.15 302.161,40.219 C 302.229,40.289 300.351,41.769 297.988,43.512 C 292.504,47.554 280.95,56.748 274.705,62.037 C 274.548,62.17 275.263,62.803 276.293,63.443 C 277.323,64.084 279.838,65.682 281.881,66.994 C 286.876,70.2 287.223,70.346 288.562,69.791 C 289.156,69.545 290.436,68.475 291.406,67.413 C 292.893,65.787 307.063,46.7 307.976,45.095 C 308.14,44.806 308.348,44.647 308.437,44.742 C 308.621,44.94 307.06,53.348 303.164,73.138 C 301.674,80.705 300.453,87.611 300.45,88.484 C 300.44,91.271 302.538,94.215 305.38,95.406 C 306.444,95.852 315.144,96.915 318.284,96.983 C 319.62,97.013 319.249,97.198 315.052,98.599 C 312.445,99.469 305.979,101.274 300.685,102.61 C 290.521,105.173 289.272,105.619 288.368,106.998 C 287.641,108.108 287.879,109.182 289.812,113.507 C 293.965,122.798 295.867,127.177 299.476,135.756 C 301.638,140.898 303.808,145.957 304.297,146.999 C 304.786,148.041 305.121,148.958 305.041,149.038 C 304.961,149.118 303.307,147.393 301.365,145.204 C 299.423,143.015 295.299,138.367 292.201,134.874 C 284.508,126.202 284.537,126.231 283.54,126.231 C 282.774,126.231 282.644,126.425 282.447,127.868 C 282.035,130.874 282.216,140.962 282.758,145.175 C 283.764,153.0 285.78,159.519 288.72,164.455 C 291.522,169.159 294.023,171.694 303.71,179.655 C 309.414,184.342 314.369,190.523 316.934,196.152 C 319.464,201.703 320.803,207.189 322.448,218.736 C 323.036,222.865 323.834,227.593 324.221,229.242 C 325.657,235.358 329.495,241.346 334.645,245.505 C 338.442,248.572 341.018,250.279 350.308,255.886 C 359.318,261.322 363.841,264.244 367.418,266.935 C 370.588,269.32 375.419,273.393 375.263,273.55 C 375.187,273.62 373.471,273.125 371.448,272.439 C 361.396,269.027 349.098,265.629 338.197,263.253 C 321.587,259.632 316.617,257.456 310.829,251.268 C 307.761,247.989 306.967,246.652 301.517,235.58 C 293.946,220.199 291.39,217.636 277.937,211.934 C 271.36,209.146 268.507,207.447 266.415,205.07 C 262.144,200.218 260.524,193.506 259.647,177.024 C 258.926,163.462 257.27,156.955 252.601,149.338 C 246.622,139.585 237.431,131.686 225.3,125.876 C 218.446,122.593 215.357,121.507 200.633,117.205 C 185.055,112.653 180.479,111.142 176.165,109.126 C 172.352,107.344 167.399,104.159 162.807,100.536 C 158.954,97.495 156.199,96.053 152.929,95.366 C 149.074,94.555 145.054,94.81 140.935,96.127 C 137.975,97.074 137.946,97.349 140.733,98.073 C 145.139,99.217 150.75,101.22 153.106,102.489 C 154.367,103.169 157.066,104.961 159.103,106.47 C 167.934,113.016 170.621,114.19 188.56,119.345 C 194.187,120.962 200.378,122.708 202.318,123.225 C 220.971,128.196 229.982,133.546 237.916,144.36 C 243.994,152.644 246.52,159.558 248.692,173.856 C 249.889,181.735 251.16,187.547 252.704,192.201 L 254.166,196.61 L 254.423,188.849 C 254.74,179.28 255.322,176.157 255.375,183.736 C 255.41,188.776 256.099,196.206 256.835,199.488 C 257.908,204.276 260.727,209.166 264.388,212.591 C 267.152,215.177 268.205,215.909 276.446,220.975 C 284.587,225.979 288.644,229.023 292.461,232.994 C 297.399,238.131 300.076,242.769 301.65,248.916 C 303.114,254.632 302.907,260.446 300.875,270.638 C 299.138,279.353 299.475,284.052 302.213,289.274 C 303.365,291.472 307.163,296.141 307.514,295.79 C 307.601,295.7 307.346,294.994 306.947,294.213 C 306.549,293.433 305.864,291.552 305.425,290.034 C 304.722,287.603 304.628,286.498 304.637,280.748 C 304.647,276.0 304.82,273.309 305.278,270.874 C 305.625,269.033 305.967,267.469 306.037,267.399 C 306.474,266.962 332.446,277.807 339.725,281.466 C 345.23,284.233 374.073,300.846 373.817,301.102 C 373.759,301.162 372.771,300.816 371.623,300.338 C 370.474,299.859 365.197,297.712 359.895,295.565 C 348.223,290.84 330.272,283.321 322.742,280.004 C 319.708,278.667 317.034,277.573 316.8,277.573 C 315.951,277.573 314.292,279.077 313.556,280.513 C 312.618,282.343 312.321,286.18 312.901,288.975 C 313.532,292.015 315.802,296.254 317.99,298.477 C 320.466,300.993 324.267,303.306 328.509,304.879 C 330.392,305.577 332.138,306.159 332.389,306.173 C 333.277,306.223 330.101,307.198 327.435,307.696 C 321.171,308.868 315.148,308.702 309.951,307.216 C 301.34,304.754 295.031,298.847 292.232,290.626 C 291.645,288.902 291.582,287.725 291.667,280.093 C 291.747,272.948 291.667,271.15 291.177,269.412 C 290.854,268.263 290.487,267.259 290.361,267.181 C 290.235,267.101 289.933,268.298 289.691,269.836 C 289.449,271.374 288.707,274.429 288.041,276.624 C 286.172,282.788 285.761,284.897 285.755,288.34 C 285.745,294.702 288.245,300.399 293.455,305.883 L 295.382,307.912 L 293.829,307.912 C 289.076,307.892 284.683,305.818 280.442,301.581 C 277.238,298.378 275.424,295.365 274.962,292.474 C 274.831,291.654 274.606,290.983 274.462,290.983 C 273.994,290.983 273.743,294.986 274.082,297.032 C 274.449,299.247 275.773,302.111 277.363,304.13 C 282.965,311.242 300.648,316.829 315.9,316.306 C 320.372,316.152 321.193,316.019 324.379,314.926 C 328.32,313.574 331.184,311.841 333.341,309.501 C 335.195,307.489 335.213,308.222 333.401,311.948 C 330.05,318.836 323.44,323.246 312.209,326.087 C 310.173,326.602 308.462,327.067 308.409,327.121 C 308.355,327.171 308.881,328.55 309.578,330.178 C 311.858,335.505 312.634,339.174 312.669,344.782 C 312.705,350.523 312.021,353.752 309.737,358.627 C 308.615,361.024 305.67,365.772 305.306,365.772 C 305.253,365.772 305.392,365.177 305.616,364.449 C 305.864,363.641 306.013,360.587 305.999,356.6 C 305.979,350.728 305.884,349.73 305.059,346.648 C 303.055,339.163 298.833,333.372 292.123,328.905 C 288.264,326.336 284.4,324.436 275.519,320.738 C 270.06,318.465 269.297,318.233 268.927,318.724 C 268.696,319.03 267.838,320.811 267.02,322.682 C 262.206,333.687 251.299,355.571 247.213,362.421 C 244.514,366.947 240.391,372.815 237.796,375.826 C 235.388,378.62 216.151,397.891 215.96,397.7 C 215.624,397.364 223.883,383.643 234.01,367.713 C 245.553,349.556 257.904,331.4 265.61,321.265 C 266.986,319.456 268.104,317.895 268.096,317.797 C 268.086,317.697 266.698,316.824 265.009,315.854 C 259.326,312.591 255.937,308.029 254.99,302.364 C 254.483,299.329 254.83,296.341 256.473,289.615 C 257.762,284.336 258.584,279.433 258.58,277.049 C 258.58,274.39 257.396,269.209 256.037,265.875 C 254.327,261.68 251.362,256.535 246.418,249.182 C 239.155,238.38 236.376,233.54 234.563,228.542 L 233.732,226.249 L 233.452,228.013 C 230.297,247.874 225.614,263.251 218.364,277.554 C 214.39,285.396 204.749,301.214 203.945,301.214 C 203.809,301.214 203.484,300.222 203.222,299.009 C 202.96,297.796 202.672,296.672 202.582,296.511 C 202.492,296.35 201.712,297.858 200.849,299.863 C 199.182,303.736 195.259,310.507 192.008,315.123 L 190.038,317.92 L 189.581,316.134 C 189.33,315.152 188.914,313.832 188.656,313.201 L 188.188,312.054 L 186.081,314.795 C 184.922,316.302 183.787,317.792 183.558,318.106 C 183.239,318.545 183.256,319.978 183.633,324.321 C 183.903,327.425 184.129,331.593 184.137,333.581 C 184.147,335.57 184.289,337.197 184.459,337.197 C 184.737,337.197 187.307,335.772 194.042,331.883 L 196.349,330.551 L 200.539,323.026 C 206.775,311.824 213.245,301.131 212.562,303.154 C 211.884,305.162 205.988,323.881 205.523,325.502 C 205.124,326.893 205.095,327.339 205.414,327.202 C 208.924,325.691 218.277,322.071 222.25,320.685 C 236.729,315.635 246.688,313.544 253.853,314.047 C 257.325,314.291 259.193,314.74 258.234,315.1 C 257.943,315.209 252.138,317.275 245.335,319.692 C 212.111,331.492 200.284,335.961 194.647,338.845 C 191.132,340.643 190.372,341.217 186.991,344.634 C 184.015,347.642 182.974,348.476 181.961,348.666 C 179.342,349.158 178.475,348.274 177.415,344.035 C 176.242,339.34 174.267,337.638 167.57,335.554 C 163.088,334.158 161.783,333.588 160.603,332.508 C 158.664,330.736 159.926,329.675 168.215,326.111 C 171.727,324.601 174.772,323.159 174.981,322.906 C 175.27,322.558 174.831,321.856 173.148,319.975 L 170.934,317.502 L 168.987,318.918 C 167.917,319.697 163.151,322.915 158.398,326.07 C 153.644,329.224 149.336,332.264 148.823,332.826 C 146.288,335.604 141.684,342.939 132.521,358.799 C 116.368,386.76 112.394,393.585 110.534,396.552 L 109.704,397.875 L 105.476,397.875 C 103.15,397.875 101.248,397.795 101.248,397.691 L 101.247,397.689 M 91.922,369.474 C 93.12,361.001 95.195,354.101 98.449,347.766 C 100.729,343.327 102.666,340.594 108.373,333.76 C 110.927,330.702 113.68,327.168 114.49,325.906 C 117.262,321.592 118.247,317.429 117.484,313.246 C 117.044,310.828 115.09,305.092 114.708,305.094 C 114.58,305.094 114.462,306.642 114.445,308.533 C 114.38,315.625 112.013,320.883 103.769,332.256 C 99.062,338.749 96.737,342.331 95.072,345.652 C 90.717,354.342 89.082,362.585 89.916,371.65 C 90.396,376.869 90.721,377.942 91.072,375.472 C 91.21,374.502 91.593,371.803 91.922,369.474 L 91.922,369.474 M 162.278,313.087 C 162.278,313.017 160.904,311.879 159.226,310.549 C 152.751,305.418 149.292,301.074 147.714,296.097 C 146.938,293.646 146.931,293.638 146.819,295.014 C 146.648,297.107 147.39,300.742 148.392,302.719 C 149.428,304.764 151.825,307.432 154.174,309.157 C 156.835,311.11 162.278,313.75 162.278,313.087 M 167.695,310.649 C 167.547,310.406 166.161,308.62 164.615,306.68 C 158.156,298.573 155.712,293.229 155.528,286.805 C 155.493,285.579 155.395,285.923 155.144,288.159 C 154.699,292.118 155.226,296.308 156.484,298.813 C 157.841,301.513 160.736,304.969 164.383,308.238 C 167.453,310.991 168.263,311.58 167.695,310.649 L 167.695,310.649 M 179.056,300.667 C 178.209,296.601 177.162,291.608 176.73,289.57 C 176.297,287.533 175.749,284.517 175.513,282.867 C 175.1,279.981 175.067,279.908 174.64,280.927 C 173.993,282.47 173.75,287.805 174.234,289.812 C 174.742,291.916 180.327,308.328 180.482,308.173 C 180.544,308.113 179.902,304.733 179.056,300.667 L 179.056,300.667 M 172.82,303.678 C 170.346,291.743 170.333,291.657 170.499,287.454 C 170.587,285.222 170.759,283.0 170.881,282.515 C 171.254,281.028 169.056,285.739 168.412,287.806 C 167.527,290.647 167.655,294.122 168.764,297.424 C 169.665,300.107 173.133,307.408 173.386,307.155 C 173.456,307.085 173.201,305.52 172.82,303.678 L 172.82,303.678 M 105.371,285.651 C 102.704,283.108 99.789,280.0 98.894,278.745 C 97.055,276.167 95.626,272.977 95.606,271.402 C 95.595,270.588 95.513,270.466 95.25,270.873 C 95.062,271.164 94.907,272.355 94.906,273.519 C 94.906,276.477 96.044,278.749 99.023,281.718 C 100.984,283.673 109.452,290.235 110.055,290.267 C 110.145,290.267 108.037,288.195 105.371,285.651 L 105.371,285.651 M 269.655,278.987 C 273.617,266.175 274.367,257.213 272.208,248.472 C 270.178,240.247 267.325,235.313 253.443,216.016 C 244.375,203.41 240.205,196.499 237.483,189.558 C 236.721,187.617 235.895,185.161 235.646,184.098 L 235.194,182.166 L 234.376,185.156 C 231.57,195.41 231.978,202.841 235.779,210.724 C 238.189,215.721 241.076,219.178 251.389,229.422 C 261.27,239.235 263.44,241.833 265.977,246.884 C 269.317,253.534 270.23,259.501 269.539,270.167 C 269.319,273.563 268.861,277.967 268.522,279.954 C 268.183,281.941 268.017,283.449 268.153,283.305 C 268.289,283.161 268.965,281.218 269.655,278.987 L 269.655,278.987 M 144.621,275.045 C 145.502,274.099 145.773,272.741 145.63,269.991 C 145.533,268.118 145.44,267.883 144.815,267.945 C 143.492,268.078 141.456,267.317 140.213,266.225 C 139.53,265.625 138.894,265.212 138.8,265.305 C 138.706,265.395 138.79,266.634 138.994,268.05 C 139.402,270.923 140.682,273.624 142.268,274.959 C 143.511,276.005 143.719,276.012 144.621,275.049 L 144.621,275.045 M 167.594,272.074 C 172.06,270.762 175.823,267.966 177.207,264.931 C 178.197,262.758 178.164,259.542 177.116,256.056 C 175.35,250.19 172.163,245.853 168.111,243.804 L 166.067,242.77 L 162.32,244.442 C 157.766,246.474 155.62,247.05 150.035,247.74 C 145.263,248.33 144.178,248.694 140.582,250.918 C 137.384,252.895 136.816,253.05 135.416,252.326 C 134.293,251.745 134.258,251.751 133.493,252.64 C 131.767,254.647 132.298,258.669 134.435,259.774 C 136.602,260.895 142.09,259.997 146.414,257.814 C 147.554,257.239 150.518,255.447 153.001,253.832 C 161.536,248.281 162.146,248.045 161.828,250.421 C 161.723,251.201 160.733,253.781 159.628,256.153 C 158.523,258.525 157.106,262.006 156.48,263.887 L 155.341,267.309 L 153.979,265.679 C 152.323,263.698 151.99,264.204 153.33,266.666 C 154.545,268.898 157.218,271.352 159.2,272.053 C 161.19,272.758 165.23,272.768 167.594,272.073 L 167.594,272.074 M 122.339,262.902 C 122.585,259.069 121.729,255.913 118.876,250.138 C 115.253,242.804 114.706,240.177 116.192,237.243 L 117.026,235.595 L 116.057,235.595 C 114.929,235.595 114.665,236.231 114.658,238.961 C 114.648,241.234 115.417,244.159 117.008,247.942 C 120.824,257.018 121.921,261.133 121.525,264.876 C 121.354,266.488 121.391,266.7 121.748,266.127 C 121.983,265.748 122.249,264.297 122.339,262.902 L 122.339,262.902 M 79.551,260.854 C 80.967,257.371 83.357,254.407 89.273,248.8 C 90.925,247.235 92.79,245.178 93.419,244.229 C 96.594,239.435 96.778,232.996 93.922,226.631 L 92.979,224.531 L 92.563,227.225 C 91.738,232.557 90.346,235.958 85.498,244.485 C 80.727,252.877 79.278,256.431 78.477,261.701 C 78.181,263.651 78.525,263.379 79.552,260.854 L 79.551,260.854 M 194.729,241.416 C 194.184,237.874 193.268,236.14 187.903,228.486 C 180.248,217.565 179.128,216.659 167.922,212.329 C 161.702,209.925 161.858,209.858 169.862,211.496 C 180.605,213.693 183.281,215.293 189.403,223.184 C 190.644,224.782 192.469,226.742 193.46,227.538 C 195.139,228.888 198.605,230.783 198.884,230.504 C 198.952,230.434 198.435,229.487 197.737,228.395 C 196.268,226.098 192.288,217.956 192.634,217.956 C 192.762,217.956 194.837,219.98 197.244,222.454 C 207.196,232.683 210.096,237.196 211.534,244.695 C 211.874,246.472 212.195,247.884 212.246,247.833 C 212.297,247.783 212.516,246.289 212.731,244.517 C 213.512,238.094 212.526,235.851 202.313,220.821 C 194.156,208.816 192.301,206.487 188.814,203.876 C 187.411,202.826 186.329,201.902 186.408,201.822 C 186.637,201.593 193.839,204.084 195.985,205.135 C 198.317,206.276 200.034,207.881 201.682,210.457 C 202.355,211.509 202.966,212.311 203.038,212.238 C 203.111,212.168 202.939,210.684 202.657,208.946 C 201.848,203.961 201.997,200.323 203.154,196.79 L 204.135,193.791 L 204.563,196.261 C 205.418,201.189 206.406,203.455 210.453,209.757 C 214.325,215.787 213.836,212.571 209.544,203.783 C 207.054,198.684 205.689,195.017 204.971,191.498 C 204.519,189.283 203.811,176.146 203.973,172.997 L 204.082,170.902 L 205.284,173.823 C 207.621,179.502 210.697,183.227 215.241,185.881 C 216.603,186.676 217.797,187.249 217.893,187.153 C 217.989,187.053 216.827,185.336 215.311,183.329 C 212.011,178.962 209.481,174.834 208.505,172.226 C 207.732,170.161 207.329,168.552 205.693,161.019 C 204.415,155.13 203.552,153.201 199.432,147.021 C 197.695,144.416 195.773,141.4 195.16,140.318 C 193.784,137.889 190.445,130.052 190.684,129.813 C 191.08,129.417 199.367,135.429 202.273,138.221 C 206.163,141.958 209.197,145.719 216.589,155.971 C 223.3,165.279 225.806,168.355 227.813,169.746 C 230.733,171.769 233.684,171.151 235.242,168.189 C 235.937,166.866 236.034,166.276 235.877,164.334 C 235.585,160.717 232.128,148.735 232.128,151.34 C 232.128,152.261 230.772,153.683 229.662,153.926 C 227.042,154.502 226.123,153.012 226.396,148.634 C 226.686,143.981 225.382,141.36 221.194,138.175 C 215.963,134.196 209.308,131.554 191.583,126.422 C 180.416,123.187 178.944,122.727 163.336,117.585 C 156.642,115.38 149.248,113.09 146.904,112.497 C 139.192,110.545 132.461,109.875 129.321,110.747 C 128.007,111.112 125.942,112.762 125.942,113.447 C 125.942,114.486 129.04,118.087 135.317,124.338 L 142.444,131.438 L 134.281,128.612 C 108.822,119.796 97.036,116.709 88.838,116.709 C 85.528,116.709 85.155,116.789 83.177,117.838 C 77.214,121.016 71.547,128.746 68.633,137.677 C 65.819,146.301 65.045,158.423 66.855,165.509 C 67.144,166.641 67.38,167.633 67.38,167.714 C 67.38,168.184 68.531,167.654 70.888,166.116 C 75.443,163.132 77.323,162.42 81.023,162.276 C 84.824,162.129 87.246,162.707 90.577,164.556 C 94.849,166.928 98.16,171.373 99.083,175.976 C 99.297,177.043 99.951,181.726 100.535,186.383 C 101.619,195.016 103.688,208.337 105.275,216.898 C 106.318,222.527 107.723,227.56 108.686,229.118 C 109.74,230.823 111.98,232.683 113.481,233.1 C 116.886,234.046 119.536,233.207 125.561,229.279 C 130.895,225.801 132.371,225.327 135.55,226.069 C 138.02,226.645 150.087,228.141 155.575,228.551 C 166.248,229.347 169.661,230.418 173.768,234.26 C 176.548,236.86 179.218,240.795 181.867,246.193 C 184.021,250.582 184.173,250.184 182.52,244.48 C 181.358,240.47 179.031,236.047 176.264,232.594 C 173.206,228.776 171.651,227.506 164.53,223.004 C 163.886,222.597 163.888,222.583 164.571,222.566 C 165.819,222.536 170.94,223.893 172.996,224.802 C 177.629,226.851 183.762,232.197 187.401,237.359 C 189.559,240.419 192.808,246.975 193.97,250.614 L 194.91,253.558 L 195.01,248.722 C 195.065,246.062 194.939,242.774 194.73,241.416 L 194.729,241.416 M 125.488,224.711 C 128.103,222.257 131.006,220.637 134.088,219.911 C 136.616,219.315 139.7,219.195 139.7,219.693 C 139.7,220.474 137.515,222.114 135.934,222.521 C 130.438,223.933 127.626,224.805 125.589,225.728 L 123.296,226.768 L 125.488,224.711 M 145.611,218.975 C 145.249,215.493 143.205,212.499 139.53,210.067 C 137.853,208.957 138.462,208.885 141.515,209.833 C 146.919,211.511 148.692,214.752 146.634,219.191 L 145.817,220.955 L 145.611,218.975 M 117.221,216.613 C 117.162,213.854 116.101,209.596 114.052,203.901 C 110.56,194.197 109.076,188.146 108.283,180.386 C 107.859,176.243 108.022,168.584 108.621,164.511 L 108.88,162.747 L 109.116,163.981 C 109.246,164.66 109.921,168.788 110.616,173.154 C 112.228,183.272 113.999,190.622 117.0,199.654 C 119.23,206.365 119.39,207.055 119.401,210.019 C 119.411,212.445 119.219,213.754 118.592,215.571 C 118.142,216.879 117.657,218.021 117.515,218.108 C 117.372,218.198 117.24,217.523 117.221,216.613 L 117.221,216.613 M 139.042,177.558 C 138.002,177.267 135.938,176.395 134.456,175.621 C 131.859,174.265 128.411,171.651 128.411,171.038 C 128.411,170.875 129.006,170.906 129.734,171.108 C 130.485,171.316 132.734,171.4 134.937,171.3 C 141.459,171.006 145.519,169.262 152.602,163.71 C 159.082,158.631 161.523,157.235 165.483,156.341 C 167.964,155.78 169.055,155.935 167.743,156.661 C 166.275,157.472 162.473,161.451 160.411,164.333 C 153.603,173.849 148.848,177.58 143.051,177.951 C 141.819,178.031 140.144,177.861 139.042,177.557 L 139.042,177.558 M 125.82,165.766 C 125.066,162.838 123.685,160.802 121.868,159.94 C 120.508,159.295 120.231,159.295 114.567,159.96 C 111.755,160.29 109.652,159.466 108.372,157.531 C 106.474,154.664 107.363,149.723 110.152,147.64 C 111.707,146.479 113.192,146.088 116.946,145.854 C 118.693,145.745 121.709,145.329 123.649,144.93 C 143.987,140.743 159.577,138.875 165.276,139.944 C 166.687,140.208 166.687,140.209 162.807,141.485 C 158.574,142.877 149.695,145.439 141.111,147.745 C 127.466,151.411 126.652,151.678 125.446,152.885 C 124.626,153.705 124.761,155.422 125.821,157.63 C 126.627,159.31 126.774,160.152 126.919,163.892 C 127.013,166.339 126.948,168.214 126.768,168.214 C 126.594,168.214 126.167,167.112 125.82,165.765 L 125.82,165.766 M 98.778,150.574 C 98.293,150.41 96.722,149.917 95.288,149.479 C 92.093,148.503 90.936,147.568 89.567,144.855 C 88.022,141.795 87.731,140.952 88.338,141.299 C 89.714,142.086 100.401,151.062 99.769,150.901 C 99.709,150.881 99.263,150.739 98.778,150.574 L 98.778,150.574 M 130.175,248.646 C 133.591,248.407 134.901,247.964 137.074,246.313 C 137.666,245.863 138.936,245.139 139.896,244.704 C 141.478,243.988 142.397,243.893 149.754,243.68 C 157.459,243.457 161.54,242.943 163.264,241.978 C 163.592,241.795 158.884,241.733 151.849,241.829 L 139.876,241.992 L 137.407,243.178 C 134.481,244.582 133.651,244.839 133.162,244.495 C 132.961,244.354 132.364,243.204 131.835,241.941 C 130.761,239.378 127.98,235.595 127.169,235.595 C 126.728,235.595 126.678,236.066 126.857,238.506 C 127.021,240.741 126.899,242.247 126.33,244.999 C 125.423,249.385 125.419,249.504 126.206,249.155 C 126.546,249.004 128.332,248.775 130.175,248.646 L 130.175,248.646 M 102.821,212.793 C 100.555,202.636 98.193,194.371 96.979,192.352 C 96.22,191.092 94.987,190.44 93.361,190.44 C 91.399,190.44 90.885,191.106 90.737,193.841 C 90.478,198.621 92.303,204.022 95.686,208.489 C 97.573,210.98 103.396,217.336 103.602,217.13 C 103.686,217.05 103.335,215.094 102.821,212.793 L 102.821,212.793 M 310.438,208.896 C 309.319,204.951 306.276,198.827 303.714,195.36 C 302.502,193.721 298.791,189.602 295.467,186.206 C 285.325,175.847 283.955,173.769 277.907,159.572 C 272.527,146.941 268.412,140.601 260.372,132.561 C 256.327,128.516 247.958,121.648 247.073,121.648 C 246.931,121.648 248.241,123.116 249.985,124.911 C 254.076,129.122 256.869,132.597 260.544,138.048 C 266.138,146.346 268.726,152.506 271.628,164.436 C 274.071,174.481 275.319,178.118 277.656,182.007 C 280.945,187.479 284.463,190.857 292.72,196.471 C 301.717,202.588 306.915,206.816 309.406,210.045 C 310.226,211.107 310.97,211.904 311.059,211.815 C 311.148,211.725 310.869,210.412 310.438,208.896 L 310.438,208.896 M 61.787,188.358 C 63.039,179.226 62.388,174.803 59.073,169.928 C 57.508,167.627 53.662,164.108 50.985,162.529 L 49.653,161.743 L 51.324,164.009 C 53.301,166.691 55.733,171.408 56.776,174.584 C 57.569,176.998 58.728,182.631 59.095,185.854 C 59.405,188.568 60.309,194.004 60.592,194.849 C 60.805,195.486 60.839,195.469 60.935,194.673 C 60.994,194.188 61.377,191.346 61.787,188.358 L 61.787,188.358 M 89.29,186.481 C 92.86,184.827 96.67,180.593 96.653,178.297 C 96.643,176.815 95.446,174.282 94.083,172.858 C 91.586,170.245 87.167,168.898 83.481,169.623 C 79.577,170.391 75.142,172.998 75.142,174.525 C 75.142,174.851 76.035,175.986 77.127,177.046 C 78.654,178.529 79.502,179.798 80.801,182.541 C 82.813,186.79 83.815,187.762 85.939,187.525 C 86.736,187.435 88.244,186.966 89.29,186.481 L 89.29,186.481 M 215.166,174.653 C 214.857,173.782 211.744,169.259 209.616,166.592 L 208.801,165.569 L 209.027,166.98 C 209.338,168.923 210.46,171.367 211.597,172.582 C 212.436,173.477 215.123,175.623 215.405,175.623 C 215.463,175.623 215.355,175.186 215.166,174.653 L 215.166,174.653 M 214.026,163.717 C 213.573,162.989 212.349,160.806 211.308,158.866 C 208.048,152.793 203.2,144.684 203.2,145.306 C 203.2,145.789 208.541,156.989 209.628,158.786 C 211.227,161.429 214.036,165.04 214.493,165.04 C 214.69,165.04 214.48,164.444 214.026,163.717 M 36.518,157.898 C 39.007,153.719 42.379,146.432 44.765,140.073 C 45.95,136.916 46.919,134.196 46.919,134.028 C 46.919,133.674 42.412,133.958 41.628,134.36 C 41.291,134.533 40.804,136.085 40.286,138.635 C 39.377,143.111 36.903,152.098 35.105,157.455 C 34.454,159.395 33.814,161.3 33.684,161.688 C 33.3,162.838 34.657,161.022 36.518,157.898 L 36.518,157.898 M 59.428,147.224 C 60.234,140.342 64.441,123.062 67.717,113.181 C 74.569,92.512 81.935,81.04 93.139,73.583 C 98.005,70.345 101.88,68.485 106.98,66.939 C 109.066,66.307 110.772,65.678 110.772,65.542 C 110.772,65.406 109.977,65.189 109.004,65.06 C 105.509,64.596 102.725,63.492 101.095,61.922 C 98.809,59.721 98.315,57.034 99.144,51.304 C 99.337,49.966 99.438,48.813 99.368,48.743 C 99.298,48.673 97.99,50.403 96.462,52.588 C 93.543,56.761 88.966,62.889 82.165,71.73 C 73.753,82.665 70.218,88.303 66.045,97.44 C 61.586,107.204 59.028,114.476 58.148,119.884 C 57.552,123.547 57.569,138.267 58.177,144.874 C 58.685,150.402 58.99,150.974 59.428,147.224 L 59.428,147.224 M 294.434,130.379 C 294.16,129.749 292.911,127.09 291.657,124.47 C 290.404,121.851 288.066,116.93 286.462,113.534 C 281.381,102.779 273.5,87.35 271.686,84.606 C 268.722,80.123 262.879,74.023 261.548,74.023 C 261.092,74.023 256.542,77.913 256.497,78.342 C 256.482,78.486 257.786,80.391 259.396,82.575 C 261.005,84.759 263.995,89.007 266.039,92.015 C 272.32,101.253 294.347,131.467 294.839,131.516 C 294.89,131.516 294.708,131.01 294.434,130.379 M 52.024,129.032 C 53.214,128.825 54.416,128.514 54.695,128.342 C 55.078,128.105 55.236,127.008 55.334,123.919 L 55.465,119.811 L 54.455,120.02 C 48.012,121.357 39.196,121.699 34.515,120.795 C 29.139,119.757 22.014,116.514 17.274,112.948 C 15.875,111.896 14.67,111.093 14.598,111.166 C 14.307,111.457 24.362,120.972 27.098,122.995 C 30.689,125.65 34.935,127.779 38.453,128.687 C 41.5,129.474 48.47,129.651 52.024,129.032 L 52.024,129.032 M 134.375,125.731 C 133.142,124.498 124.776,118.125 121.234,115.722 C 111.341,109.009 87.465,94.131 86.583,94.131 C 85.905,94.131 79.643,100.185 79.977,100.518 C 80.131,100.672 82.321,101.661 84.843,102.716 C 97.24,107.899 120.554,118.817 131.233,124.44 C 133.566,125.668 134.834,126.189 134.375,125.731 L 134.375,125.731 M 44.051,115.709 C 48.426,111.695 53.353,107.578 57.612,104.376 C 60.29,102.363 61.082,101.563 61.412,100.54 C 61.641,99.829 62.445,97.754 63.199,95.93 C 63.952,94.106 64.473,92.518 64.357,92.402 C 63.532,91.58 46.913,103.04 38.962,109.914 C 36.158,112.338 32.808,116.142 32.808,116.902 C 32.808,117.326 37.894,118.732 39.641,118.791 C 40.446,118.821 41.351,118.186 44.051,115.709 L 44.051,115.709 M 258.351,115.709 C 257.801,114.773 255.049,110.086 252.236,105.293 C 246.651,95.777 244.048,91.949 240.694,88.313 L 238.5,85.935 L 236.224,87.187 C 234.971,87.875 233.303,88.845 232.516,89.342 L 231.085,90.245 L 234.164,93.146 C 236.954,95.775 242.014,100.688 254.705,113.093 C 257.131,115.464 259.168,117.405 259.233,117.407 C 259.297,117.407 258.9,116.644 258.351,115.709 L 258.351,115.709 M 206.551,108.309 C 195.301,97.204 169.066,72.606 168.476,72.609 C 168.023,72.609 159.103,80.634 159.103,81.039 C 159.103,81.195 161.762,82.801 165.012,84.608 C 176.535,91.015 189.024,98.724 202.812,107.941 C 207.973,111.391 212.275,114.218 212.372,114.222 C 212.469,114.222 209.85,111.565 206.551,108.309 L 206.551,108.309 M 36.321,106.801 C 36.344,106.497 31.376,101.781 23.153,94.299 C 14.106,86.068 12.463,84.631 12.874,85.307 C 13.366,86.116 25.548,102.584 29.119,107.266 L 32.279,111.41 L 34.292,109.206 C 35.399,107.994 36.312,106.912 36.321,106.801 L 36.321,106.801 M 270.878,104.798 C 268.68,101.587 264.667,96.409 263.233,94.935 C 261.54,93.192 260.219,92.477 254.881,90.414 C 250.383,88.676 248.355,88.182 248.355,88.823 C 248.355,89.428 254.336,99.334 254.825,99.538 C 255.05,99.628 258.51,101.054 262.513,102.698 C 266.517,104.342 270.089,105.859 270.451,106.069 C 271.857,106.886 272.005,106.444 270.878,104.798 L 270.878,104.798 M 119.109,101.335 C 133.314,96.186 140.872,91.278 156.28,77.199 C 165.127,69.115 173.783,61.846 177.094,59.718 C 180.609,57.46 183.602,56.448 191.885,54.717 C 196.071,53.842 199.972,53.008 200.554,52.862 C 201.71,52.573 201.769,52.615 198.555,51.438 C 197.455,51.035 196.141,50.38 195.635,49.981 C 194.319,48.947 193.322,46.784 193.322,44.965 C 193.322,42.087 195.228,37.042 197.672,33.449 C 198.266,32.575 198.522,32.035 198.242,32.247 C 197.961,32.46 195.827,34.07 193.499,35.826 C 191.17,37.582 187.578,40.345 185.515,41.966 C 183.453,43.587 179.246,46.889 176.166,49.302 C 171.835,52.697 168.049,56.212 159.438,64.836 C 147.886,76.404 144.858,78.997 138.412,82.836 C 131.41,87.007 124.909,89.514 110.304,93.673 C 105.681,94.989 101.871,96.217 101.837,96.4 C 101.803,96.584 104.237,98.218 107.244,100.031 C 111.482,102.586 112.921,103.288 113.641,103.154 C 114.152,103.054 116.612,102.24 119.109,101.335 L 119.109,101.335 M 48.403,97.56 C 49.682,96.636 50.818,95.646 50.927,95.362 C 51.292,94.411 51.613,79.819 51.261,80.192 C 50.253,81.258 45.177,97.338 45.158,99.524 C 45.158,99.871 45.475,99.677 48.403,97.56 L 48.403,97.56 M 288.277,94.362 C 291.926,90.006 294.8,85.123 297.054,79.447 C 297.644,77.962 299.322,72.601 300.783,67.533 C 302.244,62.466 303.829,57.067 304.306,55.536 C 304.782,54.006 305.119,52.7 305.054,52.635 C 304.989,52.565 304.316,53.584 303.559,54.889 C 301.433,58.554 296.346,66.581 294.867,68.604 C 294.137,69.604 293.065,70.76 292.485,71.173 C 291.501,71.873 291.444,72.038 291.631,73.618 C 292.012,76.838 289.281,81.206 283.164,87.158 L 279.268,90.949 L 279.891,92.273 C 280.234,93.001 281.242,94.938 282.131,96.578 L 283.746,99.558 L 285.151,97.989 C 285.923,97.126 287.33,95.494 288.277,94.362 M 58.737,90.238 C 59.514,89.722 61.311,88.625 62.732,87.802 C 64.203,86.949 65.239,86.127 65.137,85.894 C 65.039,85.668 63.349,81.991 61.381,77.722 C 59.413,73.454 56.935,67.739 55.874,65.022 C 54.813,62.306 53.791,59.766 53.602,59.378 C 53.197,58.544 53.423,67.92 54.165,82.661 C 54.438,88.094 54.666,92.592 54.671,92.656 C 54.682,92.792 56.708,91.587 58.737,90.238 L 58.737,90.238 M 224.19,89.145 C 226.026,88.636 241.221,78.926 270.757,59.39 C 279.294,53.743 287.51,48.357 289.013,47.423 C 290.517,46.488 291.747,45.662 291.747,45.588 C 291.747,45.518 290.914,45.784 289.895,46.188 C 288.876,46.593 286.991,47.305 285.705,47.772 C 278.058,50.546 257.87,59.036 256.154,60.199 C 255.066,60.936 251.921,63.16 249.165,65.141 C 238.327,72.928 231.291,76.489 222.169,78.801 C 216.7,80.187 213.228,80.35 198.357,79.92 C 190.94,79.705 184.756,79.645 184.615,79.786 C 184.473,79.927 186.256,81.937 188.575,84.251 L 192.793,88.46 L 204.788,88.952 C 220.378,89.593 222.499,89.614 224.19,89.145 L 224.19,89.145 M 92.05,84.432 C 104.499,79.119 123.349,74.704 140.229,73.149 L 145.521,72.661 L 147.743,70.253 C 148.965,68.928 150.44,67.258 151.02,66.541 L 152.075,65.238 L 150.914,65.381 C 150.276,65.461 147.452,65.606 144.639,65.707 C 139.267,65.899 129.728,66.904 124.354,67.843 C 113.722,69.701 102.3,72.771 98.042,74.915 C 95.223,76.335 90.622,79.744 88.693,81.843 C 87.274,83.386 83.961,87.87 83.961,88.248 C 83.961,88.36 85.112,87.834 86.519,87.077 C 87.925,86.32 90.415,85.13 92.05,84.432 L 92.05,84.432 M 286.257,79.139 C 287.16,77.598 287.169,77.526 286.591,76.405 C 285.26,73.819 279.276,68.678 274.416,65.944 L 272.431,64.827 L 270.712,66.223 C 269.767,66.991 268.374,68.156 267.617,68.813 L 266.241,70.007 L 270.263,72.019 C 272.475,73.126 276.587,75.521 279.4,77.341 C 282.213,79.162 284.699,80.667 284.923,80.686 C 285.147,80.706 285.747,80.009 286.257,79.139 L 286.257,79.139 M 74.89,75.552 C 75.818,74.075 76.507,72.797 76.421,72.71 C 76.242,72.531 67.181,73.904 65.176,74.414 C 64.448,74.599 63.853,74.89 63.853,75.059 C 63.853,75.511 71.154,78.178 72.496,78.216 C 73.001,78.226 73.68,77.474 74.89,75.552 L 74.89,75.552 M 223.749,75.347 C 225.447,74.761 226.836,74.146 226.836,73.978 C 226.836,73.606 221.832,69.451 220.538,68.749 C 219.495,68.183 208.799,67.703 209.306,68.245 C 209.463,68.413 211.765,70.4 214.421,72.661 C 218.011,75.716 219.432,76.726 219.957,76.591 C 220.345,76.491 222.051,75.932 223.749,75.347 L 223.749,75.347 M 182.596,65.548 C 208.398,62.845 222.796,62.76 235.965,65.235 C 242.686,66.498 241.7,66.7 245.809,63.216 C 247.803,61.524 249.312,60.025 249.16,59.883 C 248.698,59.453 238.115,57.491 231.313,56.576 C 220.506,55.121 216.6,54.877 207.045,55.06 C 198.848,55.217 197.769,55.312 194.38,56.167 C 185.979,58.287 181.899,60.058 178.21,63.186 C 176.321,64.788 174.212,67.125 175.215,66.505 C 175.412,66.383 178.734,65.952 182.596,65.548 L 182.596,65.548 M 121.646,63.646 C 124.037,63.191 126.121,62.68 126.278,62.509 C 126.515,62.251 136.859,39.318 137.476,37.682 C 137.586,37.391 131.857,42.947 124.746,50.029 L 111.816,62.906 L 113.852,63.84 C 114.971,64.353 116.205,64.706 116.593,64.623 C 116.981,64.543 119.255,64.1 121.646,63.646 L 121.646,63.646 M 87.976,58.584 C 89.226,56.886 90.2,55.448 90.141,55.388 C 90.082,55.328 87.675,55.515 84.792,55.805 C 81.91,56.095 76.811,56.606 73.463,56.94 C 70.114,57.275 67.456,57.631 67.557,57.732 C 67.829,58.004 83.629,61.591 84.744,61.634 C 85.557,61.664 86.048,61.202 87.976,58.584 L 87.976,58.584 M 160.418,57.431 C 163.393,54.569 163.768,54.885 156.457,54.098 C 149.857,53.387 145.653,52.892 142.892,52.501 C 140.458,52.157 139.773,52.275 141.15,52.801 C 142.872,53.459 154.169,58.482 155.465,59.166 C 156.205,59.556 157.048,59.878 157.339,59.88 C 157.63,59.88 159.016,58.781 160.418,57.431 L 160.418,57.431 M 236.84,46.082 C 236.971,42.165 237.158,36.808 237.256,34.176 L 237.434,29.392 L 236.17,33.272 C 235.475,35.407 233.88,40.365 232.626,44.292 C 231.371,48.218 230.259,51.655 230.154,51.929 C 230.007,52.312 230.555,52.505 232.545,52.768 C 233.965,52.956 235.458,53.131 235.864,53.157 C 236.583,53.207 236.609,53.018 236.84,46.082 L 236.84,46.082 M 219.277,46.237 C 220.585,43.763 222.578,40.184 223.706,38.284 L 225.756,34.83 L 222.151,37.617 C 220.168,39.149 215.768,42.5 212.372,45.062 C 208.977,47.623 206.149,49.86 206.088,50.031 C 205.956,50.399 207.997,50.584 213.136,50.671 L 216.898,50.731 L 219.277,46.237 M 175.14,46.327 C 175.715,45.857 176.112,45.414 176.022,45.341 C 174.263,43.909 145.336,30.273 144.057,30.273 C 143.713,30.273 141.969,34.087 142.216,34.299 C 142.287,34.359 143.457,34.771 144.815,35.211 C 149.221,36.641 168.923,44.666 172.156,46.347 C 173.029,46.801 173.822,47.175 173.919,47.177 C 174.016,47.177 174.566,46.796 175.14,46.327 L 175.14,46.327 M 206.574,41.01 C 205.745,39.332 204.545,37.671 203.161,36.288 C 201.987,35.114 200.92,34.154 200.79,34.155 C 200.469,34.155 199.319,36.215 199.319,36.788 C 199.319,37.041 200.391,38.129 201.701,39.205 C 203.01,40.281 204.876,41.973 205.846,42.966 C 208.097,45.269 208.348,44.597 206.574,41.01 M 101.379,40.768 C 102.102,39.458 102.544,38.386 102.362,38.386 C 102.041,38.386 99.13,43.67 99.13,44.251 C 99.13,44.655 99.843,43.551 101.379,40.768 L 101.379,40.768 M 107.774,33.093 C 111.791,30.684 116.017,29.723 121.003,30.085 C 124.664,30.352 131.466,31.456 134.956,32.35 L 137.539,33.011 L 138.209,32.259 C 139.038,31.329 140.405,29.351 140.405,29.083 C 140.405,28.974 139.087,28.482 137.476,27.991 C 127.112,24.829 119.847,24.608 114.019,27.276 C 110.9,28.704 106.662,32.024 105.016,34.33 L 104.26,35.388 L 105.135,34.77 C 105.616,34.43 106.803,33.675 107.774,33.093 L 107.774,33.093 M 194.354,31.622 C 195.773,30.578 195.833,30.47 195.229,30.028 C 193.717,28.922 187.639,26.036 185.032,25.185 C 180.493,23.704 163.959,20.36 163.491,20.828 C 163.401,20.918 165.036,21.434 167.124,21.974 C 174.951,23.998 184.893,28.088 190.147,31.446 C 191.214,32.128 192.255,32.699 192.459,32.714 C 192.663,32.724 193.516,32.238 194.354,31.622 L 194.354,31.622 M 115.95,18.209 C 119.919,15.533 128.517,11.231 133.703,9.326 C 137.968,7.758 137.142,7.729 131.177,9.236 C 122.905,11.327 117.148,13.91 112.607,17.569 C 110.802,19.023 107.956,22.306 107.952,22.939 C 107.952,23.293 111.684,21.083 115.95,18.207 L 115.95,18.209 M 187.603,394.075 C 197.861,383.061 220.804,361.393 228.413,355.534 C 229.133,354.979 222.383,363.998 216.663,371.232 C 208.37,381.722 198.663,392.201 193.348,396.402 L 191.495,397.867 L 187.783,397.867 L 184.071,397.867 L 187.603,394.075 M 145.715,370.336 C 149.028,366.361 158.626,354.683 159.968,352.994 L 161.362,351.24 L 160.528,349.667 C 159.675,348.058 158.043,346.556 156.033,345.528 C 154.687,344.839 150.887,343.905 149.401,343.897 L 148.343,343.897 L 148.383,341.693 C 148.405,340.48 148.445,338.514 148.471,337.324 L 148.519,335.16 L 154.428,338.169 C 165.749,343.936 168.98,346.77 168.98,350.936 C 168.98,353.862 167.95,354.93 158.573,361.732 C 154.887,364.406 150.68,367.484 149.225,368.571 C 147.769,369.658 146.023,370.935 145.344,371.408 C 144.116,372.263 144.118,372.258 145.714,370.342 L 145.715,370.336 M 259.997,362.763 C 259.997,362.663 260.383,360.958 260.854,358.97 C 262.885,350.408 266.924,341.439 274.21,329.31 L 276.483,325.525 L 277.57,328.623 C 279.14,333.102 279.232,333.819 278.41,335.212 C 278.027,335.861 276.128,338.357 274.189,340.759 C 269.772,346.233 265.59,352.626 262.62,358.444 C 260.589,362.424 259.997,363.398 259.997,362.763 M 255.467,177.734 C 255.467,177.249 255.547,177.05 255.645,177.293 C 255.743,177.535 255.743,177.932 255.645,178.175 C 255.547,178.417 255.467,178.215 255.467,177.734 L 255.467,177.734" id="path11" style="fill:#000000"/>
</svg>
